<svg width="68" height="7" viewBox="0 0 68 7" fill="none" xmlns="http://www.w3.org/2000/svg">
<g clip-path="url(#clip0_9_698)">
<path d="M14.7998 5.57462C21.2591 5.77964 27.7219 5.91144 34.1847 5.97001C40.6475 6.02859 47.0505 6.00906 53.4816 5.91632C57.135 5.86262 60.7918 5.7894 64.4452 5.69177L64.941 6.69247C56.6005 6.49233 48.2636 6.24337 39.9266 5.94561C31.5897 5.64784 23.2528 5.30125 14.9158 4.90098C10.2358 4.67643 5.55919 4.44212 0.879113 4.18828C0.604849 4.17364 0.193452 4.07601 0.0387385 3.70502C-0.105426 3.35844 0.161806 3.17782 0.383327 3.18759C9.07188 3.49512 17.7675 3.52441 26.4595 3.27057C35.1516 3.01674 43.8367 2.47489 52.5112 1.65481C57.3846 1.19595 62.2546 0.644351 67.1175 0.00488043C67.3812 -0.0292897 67.8172 0.151324 67.9579 0.488144C68.1126 0.854253 67.8242 0.981171 67.6133 1.00558C58.9599 2.14296 50.2854 3.00209 41.6039 3.5781C32.9223 4.15411 24.2268 4.44212 15.5347 4.447C10.6507 4.447 5.76665 4.36402 0.882629 4.18828L0.386843 3.18759C8.72026 3.64156 17.0572 4.04184 25.3941 4.39819C33.7311 4.74965 42.068 5.05718 50.4049 5.31102C55.085 5.45258 59.7686 5.58438 64.4487 5.69665C64.723 5.70153 65.1379 5.81381 65.2891 6.17992C65.4403 6.54602 65.1625 6.69247 64.9445 6.69735C58.4782 6.86332 52.0189 6.96583 45.5561 6.99024C39.0933 7.01464 32.6903 6.97071 26.2591 6.84867C22.6058 6.78033 18.9489 6.68759 15.2956 6.57043C15.0213 6.56067 14.6064 6.45328 14.4552 6.08717C14.311 5.74058 14.5783 5.55997 14.7998 5.56973V5.57462Z" fill="#852520"/>
</g>
<defs>
<clipPath id="clip0_9_698">
<rect width="68" height="7" fill="white" transform="matrix(1 0 0 -1 0 7)"/>
</clipPath>
</defs>
</svg>
