<svg width="28" height="56" viewBox="0 0 28 56" fill="none" xmlns="http://www.w3.org/2000/svg">
<path d="M16.072 0.0187784C16.691 -0.204249 18.6662 1.62365 18.965 2.095C20.4155 4.38966 19.627 6.68662 18.1173 8.75365C16.9682 10.324 11.9412 14.5133 12.5628 16.2699C12.5924 16.355 13.6069 17.1092 12.2937 16.8953C11.3222 16.739 10.4664 14.8812 10.5579 14.0925C10.7409 12.5198 14.8556 8.5881 16.037 7.0384C17.6356 4.94378 18.3272 3.18256 16.6533 0.841916C16.4999 0.625786 15.6872 0.159033 16.0747 0.0187784H16.072Z" fill="#852520"/>
<path d="M18.4644 2.52498C18.8385 3.12049 19.0726 3.79416 19.1211 4.47014C19.4817 4.52532 19.0942 3.95281 19.1991 3.81025L18.7362 2.62384C21.2847 6.30265 16.5188 9.66187 13.798 12.0508C14.6807 11.1886 15.6172 10.3286 16.4219 9.41354C16.6937 9.10314 17.7755 7.88914 17.8885 7.63392C17.9343 7.52815 17.9935 7.48447 17.8509 7.40399C16.6829 9.06176 15.1544 10.4965 13.685 11.9519C13.6097 11.8784 13.7469 11.7312 13.8007 11.6553C14.4977 10.6482 16.5215 9.04106 16.9655 8.02938C17.0112 7.92362 17.0704 7.87993 16.9278 7.79946L13.1468 11.8209C15.0844 8.933 18.9865 6.31185 18.1227 2.62384L18.6636 3.74358L18.4698 2.52498H18.4644Z" fill="#F2F7DC"/>
<path d="M17.8482 2.52498C19.0296 6.4889 14.2098 9.74923 11.9062 12.7429C11.4675 12.5635 16.2173 7.34651 16.4972 6.97403C17.6463 5.44733 18.2115 4.42646 17.8482 2.52498Z" fill="#F2F7DC"/>
<path d="M17.7702 8.5904L15.6872 10.9632L13.4509 13.4028L15.4558 10.9632L17.7702 8.5904Z" fill="#F2F7DC"/>
<path d="M11.6747 17.5899C14.2286 17.5255 17.2399 17.5669 19.7776 17.7876C20.959 17.8911 24.296 18.2612 25.063 19.0062C25.5474 19.4776 25.6873 20.8594 26.0668 21.248C26.204 21.3882 26.7099 21.5193 26.9925 21.8412C27.162 22.0343 27.3827 22.577 27.5334 22.8299C27.598 22.9402 27.9909 23.2621 27.9963 23.292C28.0986 23.7611 26.0479 24.3198 25.76 24.6762C25.6577 26.4466 25.1733 28.3205 25.1437 30.0817C25.133 30.7163 25.4101 31.0658 25.3752 31.7303C25.324 32.719 24.8127 33.9974 24.6809 35.0274C24.1776 38.9523 23.6798 42.8357 23.0608 46.6962C22.6679 49.1426 22.4122 51.6212 22.1351 54.0791C21.7771 55.0517 17.5494 55.8012 16.4649 55.8909C13.2059 56.1599 8.11169 56.0817 5.77849 53.879C5.57397 51.4763 5.24027 49.0759 4.85275 46.6939C4.23649 42.8978 3.83281 39.0327 3.31073 35.1562C3.07661 33.434 2.85057 32.4913 2.76983 30.7393C2.67295 28.6424 2.4442 26.5616 2.15356 24.4761C0.498526 23.6622 -1.11613 23.476 1.03406 21.9378C6.94105 24.4233 14.0241 24.3244 20.4773 23.9151L20.5554 23.7841C15.3346 24.0347 9.80171 24.0784 4.73704 22.8621C4.15037 22.7218 1.45119 21.9722 1.30318 21.5101C1.2063 21.2112 2.31772 19.358 2.61374 19.0706C3.87588 17.8589 9.74519 17.6359 11.6801 17.5876L11.6747 17.5899Z" fill="#852520"/>
<path d="M15.9967 17.9853C17.1619 17.9371 23.9624 18.2038 24.2907 19.1396C24.4521 19.5925 23.3515 19.9581 22.9397 20.0961C19.8638 21.1238 7.72151 21.3905 4.88508 20.0294C4.62673 19.9052 3.88399 19.4799 4.65365 19.5029C4.9712 19.5121 6.23602 20.011 6.73656 20.0961C7.07564 20.1535 9.93091 20.5122 10.017 20.3927C10.0305 20.3743 9.47341 20.0984 9.82326 20.0961C9.95243 20.0961 10.4099 20.6272 10.8271 20.4249C10.7813 20.2639 10.2485 20.1604 10.5176 20.0294C10.9562 20.2432 11.1957 20.5214 11.7528 20.4249L11.1365 19.9627C11.7313 20.1076 12.875 20.9928 11.8308 19.9627C11.9896 20.0202 12.7081 20.5559 12.7943 20.3904L12.2157 19.9627C12.4632 19.8845 13.2194 20.6134 13.3352 20.3904L12.7566 19.9627L13.9137 20.4249L13.3728 19.8983C13.7765 20.0271 14.1586 20.4869 14.5677 20.3927C12.9584 19.3787 14.6673 20.3651 15.1839 20.3927L14.5273 19.8983C14.5892 19.7627 16.2765 20.7399 16.0317 20.326C15.9455 20.372 15.079 19.9351 15.4531 19.8983C15.5311 19.8914 17.1458 20.7008 16.7636 20.2938L16.1474 19.8983C16.734 19.9098 17.0354 20.5444 17.6517 20.326C17.5306 20.1719 16.7313 20.1581 16.9951 19.8316C17.4579 20.0064 17.8993 20.4754 18.4214 20.326C18.3971 20.3559 17.4122 19.9006 17.8428 19.8983C18.0069 19.8983 18.5425 20.326 18.6905 20.3605C19.156 20.4639 23.451 19.873 23.591 19.6017C23.7309 19.3304 22.4849 18.7234 22.24 18.6452C20.4585 18.0773 17.9612 18.3992 16.1447 18.1187C16.0343 18.1026 15.8756 18.1532 15.9913 17.9876L15.9967 17.9853Z" fill="#F2F7DC"/>
<path d="M3.80322 21.3469L7.85334 22.2367C7.01102 22.0366 4.55404 22.0665 3.95661 21.6756C3.87857 21.6228 3.64714 21.4273 3.80322 21.3469Z" fill="#F2F7DC"/>
<path d="M7.3528 21.0824C7.99059 21.0158 8.98361 21.3423 9.62948 21.4457C9.6241 21.678 7.01102 21.4066 6.7742 21.248C6.9868 21.3078 7.32319 21.087 7.3528 21.0824Z" fill="#F2F7DC"/>
<path d="M6.12027 21.4779L8.93787 21.7078C8.31084 21.9584 6.97875 21.8665 6.35172 21.6756C6.26829 21.6504 5.9911 21.5906 6.12027 21.4779Z" fill="#F2F7DC"/>
<path d="M5.88881 20.9514L6.6208 21.248C6.59658 21.3629 5.76233 21.2043 5.88881 20.9514Z" fill="#852520"/>
<path d="M18.6205 19.9627L19.0457 20.1926C18.9919 20.3398 18.3998 20.034 18.6205 19.9627Z" fill="#852520"/>
<path d="M6.35171 20.8847C6.47012 20.8479 6.52125 20.9813 6.42975 21.0158C6.31672 21.0572 6.26022 20.9123 6.35171 20.8847Z" fill="#852520"/>
<path d="M20.9348 23.7197L20.9725 23.8186L20.8568 23.853L20.8191 23.8186L20.9348 23.7197Z" fill="#852520"/>
<path d="M13.9891 35.4551C14.2851 35.4367 15.2835 35.6206 15.34 35.8827C15.4262 36.2897 13.206 37.0783 13.0257 38.0578C12.7055 39.8076 15.7303 40.518 13.8734 42.7391C13.7577 42.8794 12.4686 43.937 12.3691 43.9577C12.0246 44.0336 11.1904 43.6289 10.9024 43.4312C8.0606 41.4653 10.5956 35.6758 13.9891 35.4551Z" fill="#F2F7DC"/>
<path d="M15.9966 36.115C16.7098 35.9034 17.9692 37.0991 18.1953 37.6647C18.9246 39.4811 17.8616 42.1459 16.15 43.3668C15.7248 43.6703 13.0095 45.0315 13.1791 43.8612C13.2302 43.5094 14.8206 42.3598 14.8771 41.5527C14.9902 39.9341 11.925 38.9591 14.4519 37.168C14.7372 36.9657 15.2162 36.8393 15.5311 36.6415C15.6576 36.5633 15.9105 36.138 15.9939 36.115H15.9966Z" fill="#F2F7DC"/>
<path d="M2.49264 24.5773C9.01051 26.0603 15.9428 26.0672 22.5549 25.3016L21.5511 25.6303C22.4203 25.6602 23.2411 24.9613 24.1749 24.9705L21.5511 26.1569L25.3321 24.7061L24.9069 28.5619C24.3202 29.0516 23.6125 29.3529 22.902 29.6816C22.9774 29.8817 24.6835 28.9781 24.7912 28.7918C25.2514 29.0493 23.0689 30.0702 22.902 30.1438C23.0581 30.2381 23.5694 29.9806 23.712 29.9139C24.0915 29.7345 24.4844 29.4517 24.7912 29.1896C24.8665 30.0518 24.9796 30.7623 24.0188 31.2336C20.9644 32.7328 7.34202 32.4775 3.9566 31.3647C3.53141 31.2244 3.25153 31.1601 3.14658 30.7393L2.48994 24.575L2.49264 24.5773Z" fill="#F2F7DC"/>
<path d="M24.9473 25.1038C25.2003 25.1452 24.662 25.4855 24.6378 25.4993C23.7471 26.0649 22.3961 26.2604 21.3573 26.5869L24.9446 25.1038H24.9473Z" fill="#852520"/>
<path d="M24.4844 29.7851C24.7132 29.8104 24.5732 29.8725 24.5221 29.9507C24.2987 30.3001 22.7971 30.9325 22.3235 31.0382L21.36 31.1371C22.5038 30.8658 23.6421 30.5393 24.4844 29.7851Z" fill="#852520"/>
<path d="M24.7158 26.2259L24.6378 26.4903C23.8385 26.8053 23.1227 27.3226 22.2077 27.3801L24.7158 26.2259Z" fill="#852520"/>
<path d="M24.8692 27.0168C25.3079 27.1364 23.0608 28.4929 22.7486 28.3021C23.564 27.9802 24.2799 27.6077 24.8692 27.0168Z" fill="#852520"/>
<path d="M24.7158 28.1366C24.9554 28.2124 24.401 28.6171 24.331 28.6631L22.7486 29.2885L24.0996 28.6631L24.7158 28.1366Z" fill="#852520"/>
<path d="M24.6378 26.7524L24.1749 27.2145L22.5926 27.7756L24.6378 26.7524Z" fill="#852520"/>
<path d="M24.4844 30.5117L23.8681 31.1716C23.5909 30.8773 23.1039 31.4199 22.6733 31.2038C23.2842 30.9279 24.0484 31.0198 24.4871 30.5117H24.4844Z" fill="#852520"/>
<path d="M24.7158 25.8304C24.2987 26.3707 23.2411 26.6903 22.5172 26.7869L24.7158 25.8304Z" fill="#852520"/>
<path d="M19.931 31.236C20.0844 31.2291 20.2405 31.2406 20.3939 31.236C20.0737 31.4452 19.3309 31.4498 18.8896 31.4015C19.2071 31.3463 19.6162 31.2475 19.931 31.236Z" fill="#852520"/>
<path d="M23.7901 28.2699C23.8574 28.2653 23.9381 28.2515 23.9838 28.3021C24.0108 28.3642 22.972 28.7459 22.8267 28.7642C22.7675 28.6539 23.7363 28.2745 23.7901 28.2699Z" fill="#852520"/>
<path d="M22.1701 26.688C22.2427 26.688 22.3181 26.665 22.3638 26.7202C22.3854 26.7846 21.5753 26.9616 21.4381 26.9846C21.4166 26.8329 22.1297 26.688 22.1701 26.688Z" fill="#852520"/>
<path d="M24.5598 27.8078C24.7804 27.7825 24.5652 27.9963 24.4064 28.0055C24.3391 27.9572 24.5463 27.8101 24.5598 27.8078Z" fill="#852520"/>
<path d="M22.092 27.7411C22.2992 27.8032 21.796 28.0308 21.8982 27.84C21.9036 27.8308 22.0813 27.7388 22.092 27.7411Z" fill="#852520"/>
<path d="M20.7034 31.1693C20.9025 31.0796 20.9268 31.2865 20.7814 31.3003C20.7734 31.3003 20.6253 31.2038 20.7034 31.1693Z" fill="#852520"/>
<path d="M22.4768 28.8631L22.5926 28.8953L22.4768 28.9942L22.4392 28.962L22.4768 28.8631Z" fill="#852520"/>
<path d="M5.26991 46.795C9.65373 47.6066 14.156 47.4779 18.6178 47.3882C17.9208 47.9148 19.2341 47.2733 19.6216 47.2572C20.2621 47.2296 19.775 47.3675 19.4682 47.5216L19.5463 47.6526C20.1437 47.3123 20.8407 47.1146 21.5511 46.9927L19.6216 47.9147L22.3235 46.8594C22.4984 46.979 22.4015 46.9445 22.3612 47.0249C22.1405 47.4871 19.3014 48.3079 18.7739 48.7724C20.0899 48.2459 21.7879 47.8596 22.7083 46.8617L21.9763 52.1017C21.5027 52.8053 20.6146 52.9869 19.8934 53.4192C19.9984 53.5962 21.6938 52.7202 21.7826 52.5294C22.1862 52.7915 20.8568 53.4652 20.6254 53.5847C19.9338 53.9434 19.1238 54.1227 18.4268 54.4745C19.557 54.2423 20.733 53.7572 21.6292 53.1226C22.2966 53.9894 20.0333 54.6907 19.3148 54.9022C15.628 55.9966 9.20969 56.0035 6.23601 53.6169L5.27261 46.7927L5.26991 46.795Z" fill="#F2F7DC"/>
<path d="M22.4015 47.5193C21.9144 48.1378 20.8272 48.5861 19.9715 48.8046L22.4015 47.5193Z" fill="#852520"/>
<path d="M21.7826 50.9475C21.8875 50.9337 21.9952 50.9268 21.9763 51.0463C21.3977 51.3062 20.8757 51.7959 20.2029 51.904C20.4182 51.743 21.6238 50.9682 21.7853 50.9475H21.7826Z" fill="#852520"/>
<path d="M21.936 49.3656C22.2185 49.407 21.8229 49.6622 21.7826 49.6944C21.4569 49.9496 20.7599 50.2623 20.3563 50.4531L21.9387 49.3656H21.936Z" fill="#852520"/>
<path d="M22.1701 48.0458C22.3961 48.0688 21.9548 48.3631 21.9387 48.3746C21.7314 48.5172 21.4246 48.5862 21.2443 48.7701L20.3563 49.0667L22.1701 48.0458Z" fill="#852520"/>
<path d="M21.936 50.2876C22.4392 50.2324 20.69 51.3935 20.5097 51.1774L21.936 50.2876Z" fill="#852520"/>
<path d="M21.5511 51.6074C21.6023 51.5959 21.7153 51.5936 21.7449 51.6396C21.6641 51.8097 20.2594 52.5961 20.2029 52.4305C20.4451 52.3638 21.4731 51.6235 21.5538 51.6074H21.5511Z" fill="#852520"/>
<path d="M22.1701 48.4413C22.6464 48.4551 21.1986 49.4392 20.9752 49.2001C21.2632 49.2139 22.0974 48.439 22.1701 48.4413Z" fill="#852520"/>
<path d="M21.9359 49.8921C21.8633 50.2554 21.1367 50.5934 20.7411 50.6509L21.9359 49.8921Z" fill="#852520"/>
<path d="M20.9349 53.8492C21.2201 54.0124 20.2836 54.2607 20.2029 54.2124L20.9349 53.8492Z" fill="#852520"/>
<path d="M20.7034 52.5294C20.7707 52.5248 20.8515 52.511 20.8972 52.5616C20.9134 52.5961 20.2406 52.9042 20.1249 52.8904C20.1491 52.7846 20.6523 52.5317 20.7034 52.5271V52.5294Z" fill="#852520"/>
<path d="M21.6292 52.0672C21.7341 52.2834 21.3412 52.3247 21.2444 52.4627C21.1367 52.2489 21.5323 52.2052 21.6292 52.0672Z" fill="#852520"/>
<path d="M20.7788 49.6944C20.9161 49.722 20.6604 49.991 20.5474 49.9588C20.5016 49.8599 20.7223 49.7726 20.7788 49.6944Z" fill="#852520"/>
<path d="M18.7739 48.2435C18.8923 48.2068 18.9434 48.3401 18.8519 48.3746C18.7389 48.416 18.6824 48.2711 18.7739 48.2435Z" fill="#852520"/>
<path d="M20.6254 49.3656C20.7438 49.3288 20.7949 49.4621 20.7034 49.4966C20.5904 49.538 20.5339 49.3932 20.6254 49.3656Z" fill="#852520"/>
<path d="M21.1663 49.3656C21.3601 49.3426 21.2497 49.4967 21.0882 49.4967C21.0102 49.4622 21.1528 49.3656 21.1663 49.3656Z" fill="#852520"/>
<path d="M18.8519 47.7837L18.8896 47.8826L18.7739 47.9148L18.7362 47.8826L18.8519 47.7837Z" fill="#852520"/>
<path d="M19.2368 48.8368L19.2745 48.9356L19.1587 48.9701L19.1211 48.9356L19.2368 48.8368Z" fill="#852520"/>
<path d="M19.9311 52.0028L19.9688 52.1017L19.853 52.1339L19.8154 52.1017L19.9311 52.0028Z" fill="#852520"/>
<path d="M18.6205 53.9135L18.6582 54.0124L18.5425 54.0469L18.5048 54.0124L18.6205 53.9135Z" fill="#852520"/>
<path d="M19.6997 54.3757L19.8154 54.4079L19.6997 54.5067L19.662 54.4745L19.6997 54.3757Z" fill="#852520"/>
<path d="M13.9137 1.14081C18.5801 3.09748 15.1193 6.7142 12.8722 8.95368C11.376 10.4436 8.88402 11.6415 9.47606 13.8971C9.29307 14.3431 8.51534 13.0946 8.47228 12.8417C7.88024 9.28708 14.974 6.50957 14.6457 2.88594C14.5838 2.21456 14.051 1.75701 13.9137 1.13851V1.14081Z" fill="#852520"/>
<path d="M14.9148 3.77806C15.157 4.51842 14.3658 5.55079 13.8733 6.18539C12.8238 7.53275 11.2791 8.49613 10.0547 9.71244C11.5401 7.6776 14.1586 6.15319 14.9148 3.77806Z" fill="#F2F7DC"/>
<path d="M13.5262 7.79945C12.9019 8.70306 11.9519 9.46182 11.0558 10.1723L13.5262 7.79945Z" fill="#F2F7DC"/>
<path d="M15.3023 3.18486C15.7867 3.06299 15.1759 4.97597 15.1086 5.13002C14.6672 6.13249 13.5262 7.22004 12.6381 7.965C14.3605 6.99702 15.2647 5.21049 15.7625 3.58032C16.2684 4.29999 15.3481 5.39673 14.8745 6.05202C13.6285 7.78106 11.6989 9.13072 10.13 10.6344C10.4772 9.90097 11.6936 9.18821 12.0972 8.55822C12.1457 8.48234 12.2883 8.41795 12.0595 8.39266L9.66714 10.7655C11.3733 8.17194 15.1705 6.43141 15.2997 3.18486H15.3023Z" fill="#F2F7DC"/>
<path d="M12.4471 8.06157C12.5843 8.08916 12.3287 8.35818 12.2157 8.32599C12.1699 8.22712 12.3906 8.13974 12.4471 8.06157Z" fill="#852520"/>
</svg>
